<svg width="143" height="204" viewBox="0 0 143 204" fill="none" xmlns="http://www.w3.org/2000/svg">
<path d="M104.323 36.8623L122.409 42.3114C125.416 43.2173 127.107 46.3653 126.201 49.3722L123.476 58.4157L94.5372 49.6971L97.2618 40.6536C98.1677 37.6467 101.316 35.9564 104.323 36.8623ZM73.0179 68.7377C74.3461 64.329 77.8399 60.918 82.2945 59.72L86.541 58.558C90.387 57.4972 94.4376 57.5585 98.2584 58.7096L115.396 63.8727C119.217 65.0238 122.627 67.2103 125.247 70.2191L128.145 73.5335C131.196 76.9929 132.224 81.7662 130.896 86.1749C129.738 90.0183 127 92.9666 123.608 94.4847C125.531 97.9247 126.094 102.114 124.868 106.183C123.567 110.502 120.496 113.818 116.692 115.558C118.902 119.109 119.63 123.57 118.329 127.888C117.028 132.206 113.957 135.523 110.153 137.262C112.363 140.813 113.091 145.274 111.79 149.592C109.386 157.573 100.942 162.107 92.9613 159.702L64.0222 150.984C56.0414 148.579 51.5076 140.136 53.912 132.155C55.213 127.837 58.2836 124.52 62.0875 122.781C59.8775 119.23 59.1499 114.769 60.4509 110.451C61.7519 106.132 64.8226 102.816 68.6265 101.077C66.4164 97.5254 65.6889 93.0646 66.9899 88.7463C68.2159 84.6768 70.9992 81.4956 74.5023 79.6904C72.5203 76.5286 71.86 72.5812 73.0179 68.7377ZM82.5492 89.4883C81.9498 91.4778 83.0872 93.5961 85.0767 94.1955L106.781 100.734C108.771 101.334 110.889 100.196 111.488 98.2068C112.088 96.2173 110.95 94.099 108.961 93.4996L87.2564 86.9607C85.2668 86.3613 83.1486 87.4987 82.5492 89.4883ZM78.5378 115.9C76.5483 115.3 74.43 116.438 73.8306 118.427C73.2312 120.417 74.3686 122.535 76.3582 123.134L98.0624 129.673C100.052 130.273 102.17 129.135 102.77 127.146C103.369 125.156 102.232 123.038 100.242 122.439L78.5378 115.9Z" fill="#EEC004"/>
<path d="M28.177 91.2584H24.9916L25.1824 94.438L30.3367 180.344C30.3446 185.217 30.9899 190.135 33.2103 193.926C35.6065 198.017 39.6364 200.452 45.3759 200.452H114.171C119.896 200.452 123.995 198.033 126.488 193.982C128.82 190.191 129.571 185.263 129.579 180.338L134.366 94.4252L134.542 91.2584H131.37H28.177ZM52.6756 115.757C52.6756 115.049 53.2673 114.457 53.9753 114.457C54.6833 114.457 55.275 115.049 55.275 115.757V175.953C55.275 176.661 54.6833 177.253 53.9753 177.253C53.2673 177.253 52.6756 176.661 52.6756 175.953V115.757ZM78.4739 115.757C78.4739 115.049 79.0656 114.457 79.7736 114.457C80.4816 114.457 81.0733 115.049 81.0733 115.757V175.953C81.0733 176.661 80.4816 177.253 79.7736 177.253C79.0656 177.253 78.4739 176.661 78.4739 175.953V115.757ZM104.272 115.757C104.272 115.049 104.864 114.457 105.572 114.457C106.28 114.457 106.872 115.049 106.872 115.757V175.953C106.872 176.661 106.28 177.253 105.572 177.253C104.864 177.253 104.272 176.661 104.272 175.953V115.757Z" fill="white" stroke="#00154B" stroke-width="6"/>
<path d="M31.5888 56.0296L32.4487 60.2552L12.115 76.3031C8.36595 79.2619 7.72207 84.6743 10.6741 88.4148C13.6262 92.1553 19.0401 92.7868 22.7891 89.8279L104.124 25.6364C107.873 22.6775 108.517 17.2651 105.565 13.5247C102.613 9.78419 97.1991 9.15269 93.45 12.1115L73.1163 28.1594L69.2062 26.341C66.2445 24.9403 62.7593 25.3588 60.1964 27.3815L34.6945 47.5082C32.1316 49.5309 30.9146 52.8235 31.5888 56.0296Z" fill="white"/>
</svg>
