<svg width="50" height="50" viewBox="0 0 50 50" fill="none" xmlns="http://www.w3.org/2000/svg">
<rect width="50" height="50" rx="25" fill="#57BC40"/>
<path d="M22.8667 36.4167C23.4667 36.6278 24.1111 36.1889 24.1111 35.5556V14.5889C24.1111 14.3556 24.0222 14.1222 23.8333 13.9778C22.7444 13.1111 20.2444 12 17 12C14.1944 12 11.5722 12.7389 10.0056 13.3389C9.37778 13.5833 9 14.2056 9 14.8778V35.45C9 36.1111 9.71111 36.5722 10.3389 36.3667C12.0889 35.7833 14.8611 35.1111 17 35.1111C18.8833 35.1111 21.3889 35.8889 22.8667 36.4167ZM27.1333 36.4167C28.6111 35.8889 31.1167 35.1111 33 35.1111C35.1389 35.1111 37.9111 35.7833 39.6611 36.3667C40.2889 36.5778 41 36.1111 41 35.45V14.8778C41 14.2056 40.6222 13.5833 39.9944 13.3444C38.4278 12.7389 35.8056 12 33 12C29.7556 12 27.2556 13.1111 26.1667 13.9778C25.9833 14.1222 25.8889 14.3556 25.8889 14.5889V35.5556C25.8889 36.1889 26.5389 36.6278 27.1333 36.4167Z" fill="white"/>
</svg>
