<svg width="50" height="50" viewBox="0 0 50 50" fill="none" xmlns="http://www.w3.org/2000/svg">
<rect width="50" height="50" rx="25" fill="#57BC40"/>
<path d="M23 35.9497C23.5625 36.1481 24.1667 35.7356 24.1667 35.1403V15.4333C24.1667 15.214 24.0833 14.9947 23.9062 14.8589C22.8854 14.0444 20.5417 13 17.5 13C14.8698 13 12.4115 13.6945 10.9427 14.2584C10.3542 14.4882 10 15.073 10 15.7049V35.0411C10 35.6625 10.6667 36.0959 11.2552 35.9027C12.8958 35.3544 15.4948 34.7225 17.5 34.7225C19.2656 34.7225 21.6146 35.4536 23 35.9497ZM27 35.9497C28.3854 35.4536 30.7344 34.7225 32.5 34.7225C34.5052 34.7225 37.1042 35.3544 38.7448 35.9027C39.3333 36.1011 40 35.6625 40 35.0411V15.7049C40 15.073 39.6458 14.4882 39.0573 14.2637C37.5885 13.6945 35.1302 13 32.5 13C29.4583 13 27.1146 14.0444 26.0937 14.8589C25.9219 14.9947 25.8333 15.214 25.8333 15.4333V35.1403C25.8333 35.7356 26.4427 36.1481 27 35.9497Z" fill="white"/>
</svg>
