<svg width="50" height="50" viewBox="0 0 50 50" fill="none" xmlns="http://www.w3.org/2000/svg">
<rect width="50" height="50" rx="25" fill="black"/>
<path d="M22.5 9H27.5C28.3313 9 29 9.66875 29 10.5V13H21V10.5C21 9.66875 21.6687 9 22.5 9ZM17 19.4688C17 18.25 17.625 17.1187 18.6625 16.475L19.65 15.8562C20.5438 15.2937 21.575 15 22.6312 15H27.3687C28.425 15 29.4563 15.2937 30.35 15.8562L31.3375 16.475C32.375 17.1187 33 18.25 33 19.4688C33 20.5312 32.5312 21.4875 31.7875 22.1313C32.5375 22.8563 33 23.875 33 25C33 26.1938 32.475 27.2687 31.6437 28C32.475 28.7313 33 29.8062 33 31C33 32.1938 32.475 33.2687 31.6437 34C32.475 34.7313 33 35.8062 33 37C33 39.2062 31.2063 41 29 41H21C18.7938 41 17 39.2062 17 37C17 35.8062 17.525 34.7313 18.3563 34C17.525 33.2687 17 32.1938 17 31C17 29.8062 17.525 28.7313 18.3563 28C17.525 27.2687 17 26.1938 17 25C17 23.875 17.4625 22.8563 18.2125 22.1313C17.4688 21.4813 17 20.5312 17 19.4688ZM21 24C21 24.55 21.45 25 22 25H28C28.55 25 29 24.55 29 24C29 23.45 28.55 23 28 23H22C21.45 23 21 23.45 21 24ZM22 31C21.45 31 21 31.45 21 32C21 32.55 21.45 33 22 33H28C28.55 33 29 32.55 29 32C29 31.45 28.55 31 28 31H22Z" fill="white"/>
</svg>
