<svg width="104" height="208" viewBox="0 0 104 208" fill="none" xmlns="http://www.w3.org/2000/svg">
<path d="M35.75 0H68.25C73.6531 0 78 4.34687 78 9.75V26H26V9.75C26 4.34687 30.3469 0 35.75 0ZM0 68.0469C0 60.125 4.0625 52.7719 10.8062 48.5875L17.225 44.5656C23.0344 40.9094 29.7375 39 36.6031 39H67.3969C74.2625 39 80.9656 40.9094 86.775 44.5656L93.1937 48.5875C99.9375 52.7719 104 60.125 104 68.0469C104 74.9531 100.953 81.1688 96.1188 85.3531C100.994 90.0656 104 96.6875 104 104C104 111.759 100.587 118.747 95.1844 123.5C100.587 128.253 104 135.241 104 143C104 150.759 100.587 157.747 95.1844 162.5C100.587 167.253 104 174.241 104 182C104 196.341 92.3406 208 78 208H26C11.6594 208 0 196.341 0 182C0 174.241 3.4125 167.253 8.81563 162.5C3.4125 157.747 0 150.759 0 143C0 135.241 3.4125 128.253 8.81563 123.5C3.4125 118.747 0 111.759 0 104C0 96.6875 3.00625 90.0656 7.88125 85.3531C3.04688 81.1281 0 74.9531 0 68.0469ZM26 97.5C26 101.075 28.925 104 32.5 104H71.5C75.075 104 78 101.075 78 97.5C78 93.925 75.075 91 71.5 91H32.5C28.925 91 26 93.925 26 97.5ZM32.5 143C28.925 143 26 145.925 26 149.5C26 153.075 28.925 156 32.5 156H71.5C75.075 156 78 153.075 78 149.5C78 145.925 75.075 143 71.5 143H32.5Z" fill="white"/>
</svg>
