<svg width="86" height="86" viewBox="0 0 86 86" fill="none" xmlns="http://www.w3.org/2000/svg">
<path d="M35.0361 1.2187C34.04 0.172798 32.5458 -0.225639 31.1513 0.139595C29.7568 0.50483 28.6777 1.61713 28.3124 3.01167L25.6894 13.3876L15.3964 10.4824C14.0019 10.0839 12.5078 10.4824 11.4951 11.4951C10.4824 12.5078 10.0839 14.0019 10.4824 15.3964L13.3876 25.6894L3.01167 28.3291C1.61713 28.6777 0.521431 29.7734 0.139595 31.1679C-0.242241 32.5624 0.172798 34.04 1.2187 35.0361L8.88862 42.5068L1.2187 49.9775C0.172798 50.9736 -0.225639 52.4677 0.139595 53.8623C0.50483 55.2568 1.61713 56.3359 3.01167 56.7011L13.3876 59.3242L10.4824 69.6171C10.0839 71.0117 10.4824 72.5058 11.4951 73.5185C12.5078 74.5312 14.0019 74.9296 15.3964 74.5312L25.6894 71.6259L28.3124 82.0019C28.6611 83.3964 29.7568 84.4921 31.1513 84.874C32.5458 85.2558 34.0234 84.8408 35.0361 83.8115L42.5068 76.1415L49.9775 83.8115C50.9902 84.8408 52.4677 85.2558 53.8623 84.874C55.2568 84.4921 56.3359 83.3964 56.7011 82.0019L59.3242 71.6259L69.6171 74.5312C71.0117 74.9296 72.5058 74.5312 73.5185 73.5185C74.5312 72.5058 74.9296 71.0117 74.5312 69.6171L71.6259 59.3242L82.0019 56.7011C83.3964 56.3525 84.4921 55.2568 84.874 53.8623C85.2558 52.4677 84.8408 50.9736 83.8115 49.9775L76.1415 42.5068L83.8115 35.0361C84.8408 34.0234 85.2558 32.5458 84.874 31.1513C84.4921 29.7568 83.3964 28.6777 82.0019 28.3124L71.6259 25.6894L74.5312 15.3964C74.9296 14.0019 74.5312 12.5078 73.5185 11.4951C72.5058 10.4824 71.0117 10.0839 69.6171 10.4824L59.3242 13.3876L56.6845 3.01167C56.3359 1.61713 55.2402 0.521431 53.8456 0.139595C52.4511 -0.242241 50.9736 0.172798 49.9775 1.2187L42.5068 8.88862L35.0361 1.2187Z" fill="#F9CB10"/>
</svg>
