<svg width="50" height="50" viewBox="0 0 50 50" fill="none" xmlns="http://www.w3.org/2000/svg">
<rect width="50" height="50" rx="25" fill="#D33232"/>
<path d="M22.9515 11.4157C22.6118 11.0589 22.1021 10.923 21.6264 11.0476C21.1507 11.1722 20.7826 11.5516 20.658 12.0273L19.7632 15.5668L16.252 14.5758C15.7763 14.4398 15.2667 14.5758 14.9212 14.9212C14.5758 15.2667 14.4398 15.7763 14.5758 16.252L15.5668 19.7632L12.0273 20.6636C11.5516 20.7826 11.1779 21.1563 11.0476 21.632C10.9174 22.1077 11.0589 22.6118 11.4157 22.9515L14.0321 25.5L11.4157 28.0484C11.0589 28.3882 10.923 28.8978 11.0476 29.3735C11.1722 29.8493 11.5516 30.2174 12.0273 30.3419L15.5668 31.2367L14.5758 34.7479C14.4398 35.2236 14.5758 35.7333 14.9212 36.0787C15.2667 36.4242 15.7763 36.5601 16.252 36.4242L19.7632 35.4331L20.658 38.9726C20.7769 39.4483 21.1507 39.822 21.6264 39.9523C22.1021 40.0826 22.6061 39.941 22.9515 39.5899L25.5 36.9735L28.0484 39.5899C28.3938 39.941 28.8978 40.0826 29.3735 39.9523C29.8493 39.822 30.2174 39.4483 30.3419 38.9726L31.2367 35.4331L34.7479 36.4242C35.2236 36.5601 35.7333 36.4242 36.0787 36.0787C36.4242 35.7333 36.5601 35.2236 36.4242 34.7479L35.4331 31.2367L38.9726 30.3419C39.4483 30.223 39.822 29.8493 39.9523 29.3735C40.0826 28.8978 39.941 28.3882 39.5899 28.0484L36.9735 25.5L39.5899 22.9515C39.941 22.6061 40.0826 22.1021 39.9523 21.6264C39.822 21.1507 39.4483 20.7826 38.9726 20.658L35.4331 19.7632L36.4242 16.252C36.5601 15.7763 36.4242 15.2667 36.0787 14.9212C35.7333 14.5758 35.2236 14.4398 34.7479 14.5758L31.2367 15.5668L30.3363 12.0273C30.2174 11.5516 29.8436 11.1779 29.3679 11.0476C28.8922 10.9174 28.3882 11.0589 28.0484 11.4157L25.5 14.0321L22.9515 11.4157Z" fill="white"/>
</svg>
