<svg width="50" height="50" viewBox="0 0 50 50" fill="none" xmlns="http://www.w3.org/2000/svg">
<path d="M7.32422 7.32422L4.00391 4.00391C2.5293 2.5293 0 3.57422 0 5.6543V16.4062C0 17.7051 1.04492 18.75 2.34375 18.75H13.0957C15.1855 18.75 16.2305 16.2207 14.7559 14.7461L11.748 11.7383C15.1367 8.34961 19.8242 6.25 25 6.25C35.3516 6.25 43.75 14.6484 43.75 25C43.75 35.3516 35.3516 43.75 25 43.75C21.0156 43.75 17.3242 42.5098 14.2871 40.3906C12.8711 39.4043 10.9277 39.7461 9.93164 41.1621C8.93555 42.5781 9.28711 44.5215 10.7031 45.5176C14.7656 48.3398 19.6973 50 25 50C38.8086 50 50 38.8086 50 25C50 11.1914 38.8086 0 25 0C18.0957 0 11.8457 2.80273 7.32422 7.32422ZM25 12.5C23.7012 12.5 22.6562 13.5449 22.6562 14.8438V25C22.6562 25.625 22.9004 26.2207 23.3398 26.6602L30.3711 33.6914C31.2891 34.6094 32.7734 34.6094 33.6816 33.6914C34.5898 32.7734 34.5996 31.2891 33.6816 30.3809L27.334 24.0332V14.8438C27.334 13.5449 26.2891 12.5 24.9902 12.5H25Z" fill="white"/>
</svg>
