<svg width="61" height="50" viewBox="0 0 61 50" fill="none" xmlns="http://www.w3.org/2000/svg">
<path d="M21.8994 0C25.2183 0 28.4013 1.31722 30.7481 3.66188C33.0949 6.00654 34.4133 9.18658 34.4133 12.5024C34.4133 15.8183 33.0949 18.9983 30.7481 21.343C28.4013 23.6876 25.2183 25.0049 21.8994 25.0049C18.5805 25.0049 15.3975 23.6876 13.0507 21.343C10.7039 18.9983 9.38546 15.8183 9.38546 12.5024C9.38546 9.18658 10.7039 6.00654 13.0507 3.66188C15.3975 1.31722 18.5805 0 21.8994 0ZM17.4315 29.6933H26.3673C27.5209 29.6933 28.655 29.8105 29.7402 30.0156C29.5349 31.8226 30.4636 33.4928 31.8714 34.3914C30.2485 35.4268 29.2611 37.478 29.9161 39.5975C30.3072 40.8575 30.8351 42.0883 31.5195 43.2701C32.2038 44.452 33.0055 45.5264 33.905 46.4934C35.4399 48.1441 37.7765 48.2906 39.4971 47.3432V47.4311C39.4971 48.3297 39.7611 49.2381 40.2695 49.9999H2.90363C1.30028 50.0097 0 48.7106 0 47.1088C0 37.4878 7.80166 29.6933 17.4315 29.6933ZM42.6256 21.3127C42.6256 20.629 43.0656 20.0137 43.7304 19.8671C44.7569 19.6327 45.8323 19.5057 46.9273 19.5057C48.0223 19.5057 49.0977 19.6327 50.1242 19.8671C50.789 20.0137 51.229 20.629 51.229 21.3127V23.0416C51.229 23.8035 51.6982 24.4872 52.363 24.8681C53.0278 25.249 53.8393 25.3077 54.4943 24.9267L55.8435 24.1551C56.4398 23.8132 57.1828 23.8914 57.6521 24.3895C58.3951 25.1807 59.0502 26.0695 59.6172 27.0463C60.1842 28.023 60.6242 29.0388 60.937 30.0742C61.1423 30.7286 60.8295 31.4124 60.2331 31.7542L58.8253 32.5649C58.1898 32.9263 57.8477 33.6296 57.8477 34.3621C57.8477 35.0947 58.1898 35.798 58.8253 36.1594L60.2331 36.9701C60.8295 37.3119 61.1326 37.9957 60.937 38.6501C60.6144 39.6854 60.1745 40.7013 59.6172 41.678C59.0599 42.6548 58.3951 43.5436 57.6521 44.3348C57.1828 44.8329 56.4301 44.9111 55.8435 44.5692L54.4943 43.7976C53.8393 43.4166 53.0181 43.4752 52.363 43.8562C51.6982 44.2371 51.229 44.9208 51.229 45.6827V47.4116C51.229 48.0953 50.789 48.7106 50.1242 48.8572C49.0977 49.0916 48.0223 49.2185 46.9273 49.2185C45.8323 49.2185 44.7569 49.0916 43.7304 48.8572C43.0656 48.7106 42.6256 48.0953 42.6256 47.4116V45.6925C42.6256 44.9208 42.1466 44.2371 41.4818 43.8464C40.817 43.4655 39.9957 43.4069 39.3309 43.7878L38.0111 44.5497C37.4147 44.8915 36.6717 44.8134 36.2024 44.3153C35.4594 43.5241 34.8044 42.6352 34.2374 41.6585C33.6703 40.6817 33.2304 39.6659 32.9175 38.6306C32.7122 37.9761 33.0251 37.2924 33.6214 36.9505L34.9902 36.1594C35.6256 35.7882 35.9776 35.0752 35.9776 34.3426C35.9776 33.61 35.6354 32.897 34.9902 32.5259L33.6214 31.7347C33.0251 31.3928 32.722 30.7091 32.9175 30.0547C33.2402 29.0193 33.6703 28.0035 34.2374 27.0267C34.8044 26.05 35.4594 25.1611 36.2024 24.37C36.6717 23.8718 37.4147 23.7937 38.0111 24.1355L39.3407 24.8974C40.0055 25.2783 40.8267 25.2197 41.4915 24.8388C42.1661 24.4579 42.6354 23.7644 42.6354 22.9927V21.3127H42.6256ZM51.6298 34.3524C51.6588 33.718 51.5587 33.0844 51.3357 32.4898C51.1127 31.8951 50.7714 31.3518 50.3323 30.8927C49.8932 30.4336 49.3655 30.0681 48.7812 29.8184C48.1968 29.5688 47.5678 29.44 46.9322 29.44C46.2966 29.44 45.6676 29.5688 45.0832 29.8184C44.4988 30.0681 43.9711 30.4336 43.5321 30.8927C43.093 31.3518 42.7516 31.8951 42.5286 32.4898C42.3056 33.0844 42.2056 33.718 42.2346 34.3524C42.2056 34.9867 42.3056 35.6204 42.5286 36.215C42.7516 36.8096 43.093 37.3529 43.5321 37.8121C43.9711 38.2712 44.4988 38.6366 45.0832 38.8863C45.6676 39.136 46.2966 39.2647 46.9322 39.2647C47.5678 39.2647 48.1968 39.136 48.7812 38.8863C49.3655 38.6366 49.8932 38.2712 50.3323 37.8121C50.7714 37.3529 51.1127 36.8096 51.3357 36.215C51.5587 35.6204 51.6588 34.9867 51.6298 34.3524Z" fill="white"/>
</svg>
