<svg width="50" height="50" viewBox="0 0 50 50" fill="none" xmlns="http://www.w3.org/2000/svg">
<rect width="50" height="50" rx="25" fill="black"/>
<path d="M22.0459 14.6281L23.8811 17.75H23.8125H20.0156C18.8502 17.75 17.9062 16.8061 17.9062 15.6406C17.9062 14.4752 18.8502 13.5312 20.0156 13.5312H20.1316C20.9174 13.5312 21.6504 13.9479 22.0459 14.6281ZM15.375 15.6406C15.375 16.4 15.5596 17.1172 15.8812 17.75H13.6875C12.7541 17.75 12 18.5041 12 19.4375V22.8125C12 23.7459 12.7541 24.5 13.6875 24.5H37.3125C38.2459 24.5 39 23.7459 39 22.8125V19.4375C39 18.5041 38.2459 17.75 37.3125 17.75H35.1187C35.4404 17.1172 35.625 16.4 35.625 15.6406C35.625 13.0777 33.5473 11 30.9844 11H30.8684C29.1861 11 27.6252 11.8912 26.7709 13.3414L25.5 15.5088L24.2291 13.3467C23.3748 11.8912 21.8139 11 20.1316 11H20.0156C17.4527 11 15.375 13.0777 15.375 15.6406ZM33.0938 15.6406C33.0938 16.8061 32.1498 17.75 30.9844 17.75H27.1875H27.1189L28.9541 14.6281C29.3549 13.9479 30.0826 13.5312 30.8684 13.5312H30.9844C32.1498 13.5312 33.0938 14.4752 33.0938 15.6406ZM13.6875 26.1875V35.4688C13.6875 36.8662 14.8213 38 16.2188 38H23.8125V26.1875H13.6875ZM27.1875 38H34.7812C36.1787 38 37.3125 36.8662 37.3125 35.4688V26.1875H27.1875V38Z" fill="white"/>
</svg>
