<svg width="108" height="108" viewBox="0 0 108 108" fill="none" xmlns="http://www.w3.org/2000/svg">
<rect x="4" y="3" width="100" height="100" rx="50" fill="#F9CA10"/>
<path d="M48.0918 32.2563L51.7621 38.5H51.625H44.0313C41.7004 38.5 39.8125 36.6121 39.8125 34.2812C39.8125 31.9504 41.7004 30.0625 44.0313 30.0625H44.2633C45.8348 30.0625 47.3008 30.8957 48.0918 32.2563ZM34.75 34.2812C34.75 35.8 35.1191 37.2344 35.7625 38.5H31.375C29.5082 38.5 28 40.0082 28 41.875V48.625C28 50.4918 29.5082 52 31.375 52H78.625C80.4918 52 82 50.4918 82 48.625V41.875C82 40.0082 80.4918 38.5 78.625 38.5H74.2375C74.8809 37.2344 75.25 35.8 75.25 34.2812C75.25 29.1555 71.0945 25 65.9688 25H65.7367C62.3723 25 59.2504 26.7824 57.5418 29.6828L55 34.0176L52.4582 29.6934C50.7496 26.7824 47.6277 25 44.2633 25H44.0313C38.9055 25 34.75 29.1555 34.75 34.2812ZM70.1875 34.2812C70.1875 36.6121 68.2996 38.5 65.9688 38.5H58.375H58.2379L61.9082 32.2563C62.7098 30.8957 64.1652 30.0625 65.7367 30.0625H65.9688C68.2996 30.0625 70.1875 31.9504 70.1875 34.2812ZM31.375 55.375V73.9375C31.375 76.7324 33.6426 79 36.4375 79H51.625V55.375H31.375ZM58.375 79H73.5625C76.3574 79 78.625 76.7324 78.625 73.9375V55.375H58.375V79Z" fill="white"/>
</svg>
