<svg width="71" height="57" viewBox="0 0 71 57" fill="none" xmlns="http://www.w3.org/2000/svg">
<path d="M22.2541 3.65001C22.7422 2.26329 22.0211 0.743451 20.6344 0.255326C19.2477 -0.232799 17.7278 0.488295 17.2397 1.87501L16.0527 5.22533L14.9544 1.91939C14.4884 0.521576 12.9797 -0.232799 11.5819 0.233138C10.1841 0.699076 9.42969 2.20783 9.89562 3.60564L10.8164 6.37908L7.77672 4.16033C6.58969 3.29501 4.92562 3.56126 4.06031 4.74829C3.195 5.93533 3.46125 7.59939 4.64828 8.4647L7.78781 10.75H5.325C2.38516 10.75 0 13.1352 0 16.075V51.575C0 54.5149 2.38516 56.9 5.325 56.9H22.2541C21.655 55.8572 21.3 54.648 21.3 53.35V28.5C21.3 25.183 23.5742 22.3985 26.6472 21.6219C26.8469 18.1828 28.5442 15.1653 31.0958 13.1795C30.1417 11.7152 28.4998 10.75 26.625 10.75H24.1622L27.3017 8.4647C28.4888 7.59939 28.755 5.93533 27.8897 4.74829C27.0244 3.56126 25.3603 3.29501 24.1733 4.16033L21.3555 6.21267L22.2541 3.65001ZM40.3258 20.6789L43.6095 24.95H38.1625C36.687 24.95 35.5 23.763 35.5 22.2875C35.5 20.8342 36.6981 19.625 38.1847 19.625C39.0278 19.625 39.8155 20.0133 40.3258 20.6789ZM30.175 22.2875C30.175 23.2194 30.3303 24.118 30.6298 24.95H30.175C27.2352 24.95 24.85 27.3352 24.85 30.275V39.15H46.15V28.5H49.7V39.15H71V30.275C71 27.3352 68.6148 24.95 65.675 24.95H65.2202C65.5197 24.118 65.675 23.2194 65.675 22.2875C65.675 17.8611 62.0695 14.3 57.6653 14.3C55.1803 14.3 52.8284 15.4538 51.3086 17.4285L47.925 21.8216L44.5414 17.4285C43.0216 15.4538 40.6586 14.3 38.1847 14.3C33.7805 14.3 30.175 17.8611 30.175 22.2875ZM24.85 51.575C24.85 54.5149 27.2352 56.9 30.175 56.9H46.15V42.7H24.85V51.575ZM49.7 56.9H65.675C68.6148 56.9 71 54.5149 71 51.575V42.7H49.7V56.9ZM60.35 22.2875C60.35 23.763 59.163 24.95 57.6875 24.95H52.2405L55.5242 20.6789C56.0345 20.0244 56.8222 19.625 57.6653 19.625C59.1519 19.625 60.35 20.8342 60.35 22.2875Z" fill="white"/>
</svg>
