<svg width="54" height="50" viewBox="0 0 54 50" fill="none" xmlns="http://www.w3.org/2000/svg">
<path d="M27.1032 23.4375V1.62109C27.1032 0.742188 27.8007 0 28.6975 0C41.0234 0 51.0177 9.79492 51.0177 21.875C51.0177 22.7539 50.2604 23.4375 49.3636 23.4375H27.1032ZM0 26.5625C0 14.7168 8.97792 4.91211 20.6263 3.34961C21.543 3.22266 22.3202 3.94531 22.3202 4.85352V28.125L37.9145 43.4082C38.5821 44.0625 38.5323 45.1367 37.7651 45.6641C33.859 48.3984 29.0761 50 23.9146 50C10.7117 50 0 39.5117 0 26.5625ZM52.4526 28.125C53.3793 28.125 54.1067 28.8867 53.9871 29.7852C53.2198 35.2441 50.5394 40.0977 46.6234 43.6816C46.0255 44.2285 45.0889 44.1895 44.511 43.6133L28.6975 28.125H52.4526Z" fill="white"/>
</svg>
