<svg width="58" height="48" viewBox="0 0 58 48" fill="none" xmlns="http://www.w3.org/2000/svg">
<path d="M16.9794 0.698052C18.0842 1.68675 18.1734 3.3642 17.1802 4.46399L9.14531 13.3512C8.65429 13.8955 7.96239 14.2177 7.22586 14.2288C6.48932 14.2399 5.78627 13.9621 5.26176 13.4511L0.786753 9.00755C-0.251092 7.96331 -0.251092 6.27475 0.786753 5.23051C1.8246 4.18627 3.53202 4.18627 4.56987 5.23051L7.03614 7.68559L13.1851 0.886905C14.1783 -0.212882 15.8634 -0.301754 16.9682 0.686943L16.9794 0.698052ZM16.9794 18.4724C18.0842 19.4611 18.1734 21.1385 17.1802 22.2383L9.14531 31.1255C8.65429 31.6698 7.96239 31.992 7.22586 32.0031C6.48932 32.0142 5.78627 31.7365 5.26176 31.2255L0.786753 26.7819C-0.262251 25.7376 -0.262251 24.0491 0.786753 23.016C1.83576 21.9828 3.53202 21.9717 4.56987 23.016L7.03614 25.471L13.1851 18.6723C14.1783 17.5726 15.8634 17.4837 16.9682 18.4724H16.9794ZM25.0031 7.11903C25.0031 5.15275 26.599 3.56416 28.5742 3.56416H53.5718C55.547 3.56416 57.1429 5.15275 57.1429 7.11903C57.1429 9.08532 55.547 10.6739 53.5718 10.6739H28.5742C26.599 10.6739 25.0031 9.08532 25.0031 7.11903ZM25.0031 24.8934C25.0031 22.9271 26.599 21.3385 28.5742 21.3385H53.5718C55.547 21.3385 57.1429 22.9271 57.1429 24.8934C57.1429 26.8596 55.547 28.4482 53.5718 28.4482H28.5742C26.599 28.4482 25.0031 26.8596 25.0031 24.8934ZM17.861 42.6677C17.861 40.7014 19.4568 39.1128 21.4321 39.1128H53.5718C55.547 39.1128 57.1429 40.7014 57.1429 42.6677C57.1429 44.634 55.547 46.2226 53.5718 46.2226H21.4321C19.4568 46.2226 17.861 44.634 17.861 42.6677ZM5.3622 37.3354C6.78286 37.3354 8.14534 37.8972 9.1499 38.8972C10.1545 39.8972 10.7188 41.2535 10.7188 42.6677C10.7188 44.0819 10.1545 45.4382 9.1499 46.4382C8.14534 47.4382 6.78286 48 5.3622 48C3.94154 48 2.57906 47.4382 1.5745 46.4382C0.569936 45.4382 0.00557973 44.0819 0.00557973 42.6677C0.00557973 41.2535 0.569936 39.8972 1.5745 38.8972C2.57906 37.8972 3.94154 37.3354 5.3622 37.3354Z" fill="white"/>
</svg>
