<svg width="32" height="29" viewBox="0 0 32 29" fill="none" xmlns="http://www.w3.org/2000/svg">
<path d="M22.6667 6.66667C22.6667 9.7 18.6056 15.1056 16.8222 17.3333C16.3944 17.8667 15.6 17.8667 15.1778 17.3333C13.3944 15.1056 9.33333 9.7 9.33333 6.66667C9.33333 2.98333 12.3167 0 16 0C19.6833 0 22.6667 2.98333 22.6667 6.66667ZM23.1111 11.1333C23.3056 10.75 23.4833 10.3667 23.6444 9.98889C23.6722 9.92222 23.7 9.85 23.7278 9.78333L30.1722 7.20555C31.05 6.85556 32 7.5 32 8.44444V23.4889C32 24.0333 31.6667 24.5222 31.1611 24.7278L23.1111 27.9444V11.1333ZM7.64444 7.68333C7.77778 8.46667 8.04444 9.25556 8.35556 9.98889C8.51667 10.3667 8.69444 10.75 8.88889 11.1333V25.1L1.82778 27.9278C0.95 28.2778 0 27.6333 0 26.6889V11.6444C0 11.1 0.333333 10.6111 0.838889 10.4056L7.65 7.68333H7.64444ZM18.2111 18.4444C18.9833 17.4778 20.1944 15.9056 21.3333 14.1667V28.0167L10.6667 24.9667V14.1667C11.8056 15.9056 13.0167 17.4778 13.7889 18.4444C14.9278 19.8667 17.0722 19.8667 18.2111 18.4444ZM16 8.44444C16.5894 8.44444 17.1546 8.21032 17.5713 7.79357C17.9881 7.37682 18.2222 6.81159 18.2222 6.22222C18.2222 5.63285 17.9881 5.06762 17.5713 4.65087C17.1546 4.23413 16.5894 4 16 4C15.4106 4 14.8454 4.23413 14.4287 4.65087C14.0119 5.06762 13.7778 5.63285 13.7778 6.22222C13.7778 6.81159 14.0119 7.37682 14.4287 7.79357C14.8454 8.21032 15.4106 8.44444 16 8.44444Z" fill="#6C6C6C"/>
</svg>
