<svg width="100" height="89" viewBox="0 0 100 89" fill="none" xmlns="http://www.w3.org/2000/svg">
<path d="M69.4444 16.6667V16.7882C68.5243 16.7188 67.6042 16.6667 66.6667 16.6667H44.4444C41.5799 16.6667 38.8021 17.0312 36.1458 17.7083C36.1285 17.3611 36.1111 17.0139 36.1111 16.6667C36.1111 7.46528 43.5764 0 52.7778 0C61.9792 0 69.4444 7.46528 69.4444 16.6667ZM66.6667 22.2222C67.2743 22.2222 67.8819 22.2396 68.4722 22.2743C69.2014 22.3264 69.9305 22.3958 70.6597 22.5C73.7153 18.941 78.2639 16.6667 83.3333 16.6667H85.3299C87.1354 16.6667 88.4549 18.3681 88.0208 20.1215L85.625 29.7049C88.3681 32.2743 90.6076 35.3993 92.1354 38.8889H94.4444C97.5174 38.8889 100 41.3715 100 44.4444V61.1111C100 64.184 97.5174 66.6667 94.4444 66.6667H88.8889C87.309 68.7674 85.434 70.6424 83.3333 72.2222V83.3333C83.3333 86.4063 80.8507 88.8889 77.7778 88.8889H72.2222C69.1493 88.8889 66.6667 86.4063 66.6667 83.3333V77.7778H44.4444V83.3333C44.4444 86.4063 41.9618 88.8889 38.8889 88.8889H33.3333C30.2604 88.8889 27.7778 86.4063 27.7778 83.3333V72.2222C21.7187 67.6736 17.5868 60.7118 16.8056 52.7778H11.8056C5.27778 52.7778 0 47.5 0 40.9722C0 34.4444 5.27778 29.1667 11.8056 29.1667H12.5C14.809 29.1667 16.6667 31.0243 16.6667 33.3333C16.6667 35.6424 14.809 37.5 12.5 37.5H11.8056C9.89583 37.5 8.33333 39.0625 8.33333 40.9722C8.33333 42.8819 9.89583 44.4444 11.8056 44.4444H17.2222C19.3229 34.0625 27.2396 25.7812 37.4132 23.125C39.6528 22.5347 42.0139 22.2222 44.4444 22.2222H66.6667ZM77.7778 45.8333C77.7778 44.7283 77.3388 43.6685 76.5574 42.8871C75.776 42.1057 74.7162 41.6667 73.6111 41.6667C72.506 41.6667 71.4462 42.1057 70.6648 42.8871C69.8834 43.6685 69.4444 44.7283 69.4444 45.8333C69.4444 46.9384 69.8834 47.9982 70.6648 48.7796C71.4462 49.561 72.506 50 73.6111 50C74.7162 50 75.776 49.561 76.5574 48.7796C77.3388 47.9982 77.7778 46.9384 77.7778 45.8333Z" fill="white"/>
</svg>
