<svg width="80" height="75" viewBox="0 0 80 75" fill="none" xmlns="http://www.w3.org/2000/svg">
<path d="M44.1896 3.06043C43.4038 1.47096 41.7432 0.459473 39.9196 0.459473C38.0959 0.459473 36.4501 1.47096 35.6495 3.06043L26.116 22.1774L4.82502 25.2408C3.04582 25.5009 1.56317 26.7147 1.01458 28.3764C0.465997 30.0381 0.910795 31.8732 2.18588 33.1015L17.6352 47.9991L13.9879 69.0524C13.6913 70.7864 14.4326 72.5493 15.9005 73.5752C17.3683 74.6011 19.3106 74.7312 20.9119 73.9075L39.9344 64.0095L58.9569 73.9075C60.5582 74.7312 62.5005 74.6156 63.9683 73.5752C65.4361 72.5348 66.1775 70.7864 65.8809 69.0524L62.2188 47.9991L77.6681 33.1015C78.9432 31.8732 79.4028 30.0381 78.8394 28.3764C78.276 26.7147 76.8081 25.5009 75.0289 25.2408L53.7231 22.1774L44.1896 3.06043Z" fill="#F9CA10"/>
</svg>
