<svg width="78" height="79" viewBox="0 0 78 79" fill="none" xmlns="http://www.w3.org/2000/svg">
<path d="M71.5722 2.89656L75.1407 6.51146C78.9531 10.3735 78.9531 16.6301 75.1407 20.4922L66.5398 29.205L49.155 11.6094L57.7559 2.89656C61.5684 -0.965519 67.7445 -0.965519 71.557 2.89656H71.5722ZM6.85217 54.4785L45.7086 15.1007L63.0933 32.7118L24.2217 72.0741C23.1999 73.1091 21.9189 73.8661 20.5312 74.2677L4.67145 78.8559C3.39047 79.2266 2.01799 78.8713 1.0725 77.9135C0.127018 76.9557 -0.223727 75.5654 0.142268 74.2677L4.67145 58.2015C5.06795 56.7803 5.81518 55.498 6.83692 54.463L6.85217 54.4785ZM38.038 15.8886L15.7733 38.4431L2.44498 24.9258C-0.406724 22.037 -0.406724 17.3407 2.44498 14.4364L14.3551 2.38676C17.2068 -0.50207 21.8427 -0.50207 24.7097 2.38676L27.7291 5.44553C27.6834 5.49187 27.6224 5.53822 27.5766 5.58456L17.8168 15.4715C16.8713 16.4293 16.8713 18.005 17.8168 18.9628C18.7622 19.9206 20.3177 19.9206 21.2632 18.9628L31.0231 9.07588C31.0688 9.02954 31.1146 8.96774 31.1603 8.9214L38.038 15.8886ZM62.3156 40.4823L69.1933 47.4495C69.1475 47.4958 69.0865 47.5422 69.0408 47.5885L59.2809 57.4754C58.3354 58.4332 58.3354 60.0089 59.2809 60.9667C60.2264 61.9245 61.7819 61.9245 62.7273 60.9667L72.4872 51.0798C72.533 51.0335 72.5787 50.9717 72.6245 50.9253L75.6439 53.9996C78.4956 56.8884 78.4956 61.5847 75.6439 64.489L63.7338 76.5386C60.8821 79.4275 56.2462 79.4275 53.3792 76.5386L40.0509 63.0368L62.3156 40.4823Z" fill="#F9CA10"/>
</svg>
